# xmcd CD database file
#
# Track frame offsets:
#	150
#	15120
#	35625
#	50165
#	70035
#	87575
#	101955
#	118057
#	136825
#	157582
#	172862
#	191285
#
# Disc length: 2780 seconds
#
# Revision: 1
# Processed by: cddbd v1.5PL3 Copyright (c) Steve Scherf et al.
# Submitted via: CDex 1.51
#
DISCID=920ada0c
DTITLE=ROAD OF MAJOR - ROAD OF MAJOR
DYEAR=2003
DGENRE=Rock
TTITLE0=僕らだけの歌
TTITLE1=雑走
TTITLE2=大切なもの
TTITLE3=足跡
TTITLE4=君がため
TTITLE5=F.L.D
TTITLE6=スコール
TTITLE7=レールの行方
TTITLE8=row,row,row
TTITLE9=夢追い人
TTITLE10=日付けのない日記
TTITLE11=春雨
EXTD=YEAR: 2003
EXTT0=
EXTT1=
EXTT2=
EXTT3=
EXTT4=
EXTT5=
EXTT6=
EXTT7=
EXTT8=
EXTT9=
EXTT10=
EXTT11=
PLAYORDER=
